 <svg width="100%" height="450" viewBox="0 0 800 400">
                    <!-- Background grid -->
                    <g stroke="#E0E0E0" stroke-width="1">
                        <line x1="100" y1="50" x2="100" y2="350" />
                        <line x1="100" y1="350" x2="750" y2="350" />
                        <line x1="100" y1="300" x2="750" y2="300" stroke-dasharray="5,5" />
                        <line x1="100" y1="250" x2="750" y2="250" stroke-dasharray="5,5" />
                        <line x1="100" y1="200" x2="750" y2="200" stroke-dasharray="5,5" />
                        <line x1="100" y1="150" x2="750" y2="150" stroke-dasharray="5,5" />
                        <line x1="100" y1="100" x2="750" y2="100" stroke-dasharray="5,5" />
                        <line x1="100" y1="50" x2="750" y2="50" stroke-dasharray="5,5" />
                    </g>
                    
                    <!-- Y-axis labels -->
                    <text x="90" y="350" text-anchor="end" font-size="12">€0</text>
                    <text x="90" y="300" text-anchor="end" font-size="12">€3.000</text>
                    <text x="90" y="250" text-anchor="end" font-size="12">€6.000</text>
                    <text x="90" y="200" text-anchor="end" font-size="12">€9.000</text>
                    <text x="90" y="150" text-anchor="end" font-size="12">€12.000</text>
                    <text x="90" y="100" text-anchor="end" font-size="12">€15.000</text>
                    <text x="90" y="50" text-anchor="end" font-size="12">€18.000</text>
                    
                    <!-- X-axis labels (years) -->
                    <text x="100" y="370" text-anchor="middle" font-size="12">0</text>
                    <text x="195" y="370" text-anchor="middle" font-size="12">4</text>
                    <text x="290" y="370" text-anchor="middle" font-size="12">8</text>
                    <text x="385" y="370" text-anchor="middle" font-size="12">12</text>
                    <text x="480" y="370" text-anchor="middle" font-size="12">16</text>
                    <text x="575" y="370" text-anchor="middle" font-size="12">20</text>
                    <text x="425" y="390" text-anchor="middle" font-size="14">Jaren</text>
                    
                    <!-- Initial investment -->
                    <rect x="100" y="300" width="20" height="50" fill="#F44336" />
                    <text x="110" y="295" text-anchor="middle" font-size="12">€2.430</text>
                    
                    <!-- Break-even point -->
                    <line x1="176" y1="50" x2="176" y2="350" stroke="#673AB7" stroke-width="2" stroke-dasharray="5,3" />
                    <text x="176" y="30" text-anchor="middle" font-size="12">Terugverdientijd</text>
                    <text x="176" y="45" text-anchor="middle" font-size="12">3,3 jaar</text>
                    
                    <!-- Cumulative savings -->
                    <path d="M100,350 L100,350 L123,340 L147,330 L171,320 L195,310 L219,300 L242,290 L266,280 L290,270 L314,260 L338,250 L362,240 L385,230 L409,220 L433,210 L457,200 L480,190 L504,180 L528,170 L552,160 L575,150" fill="none" stroke="#4CAF50" stroke-width="3" />
                    
                    <!-- Total profit point -->
                    <circle cx="575" cy="150" r="8" fill="#8BC34A" />
                    <text x="580" y="130" text-anchor="middle" font-size="12">Totale winst</text>
                    <text x="580" y="145" text-anchor="middle" font-size="12">€14.688</text>
                    
                    <!-- Legend -->
                    <rect x="650" y="170" width="15" height="15" fill="#F44336" />
                    <text x="670" y="183" font-size="12">Investering</text>
                    <line x1="650" y1="200" x2="665" y2="200" stroke="#4CAF50" stroke-width="3" />
                    <text x="680" y="203" font-size="12">Opbrengst</text>
                    <line x1="650" y1="220" x2="665" y2="220" stroke="#673AB7" stroke-width="2" stroke-dasharray="5,3" />
                    <text x="690" y="223" font-size="12">Terugverdienpunt</text>
                </svg>
              